<svg xmlns="http://www.w3.org/2000/svg" width="720" height="420" viewBox="0 0 720 420" role="img" aria-label="EI-INS-P01 기준 샘플 판정부">
  <rect width="720" height="420" fill="#f8fafc"/>
  <rect x="32" y="30" width="656" height="360" rx="20" fill="#ffffff" stroke="#cbd5e1" stroke-width="2"/>
  <rect x="68" y="112" width="470" height="170" rx="18" fill="#e2e8f0" stroke="#64748b" stroke-width="3"/>
  <rect x="96" y="142" width="126" height="88" rx="12" fill="#f1f5f9" stroke="#94a3b8" stroke-width="2"/>
  <rect x="252" y="136" width="110" height="98" rx="12" fill="#cbd5e1" stroke="#64748b" stroke-width="2"/>
  <rect x="392" y="126" width="110" height="118" rx="12" fill="#f1f5f9" stroke="#94a3b8" stroke-width="2"/>
  <path d="M112 288h386" stroke="#475569" stroke-width="10" stroke-linecap="round"/>
  <circle cx="320" cy="168" r="42" fill="#f97316" fill-opacity="0.2" stroke="#ea580c" stroke-width="6"/>
  <path d="M596 95 L348 142" stroke="#ea580c" stroke-width="8" stroke-linecap="round"/>
  <path d="M348 142 l25 -7 l-8 24 z" fill="#ea580c"/>
  <text x="64" y="72" fill="#0f172a" font-family="Arial, 'Malgun Gothic', sans-serif" font-size="28" font-weight="700">검사 설비</text>
  <text x="64" y="100" fill="#475569" font-family="Arial, 'Malgun Gothic', sans-serif" font-size="18">EI-INS-P01</text>
  <rect x="470" y="284" width="184" height="58" rx="14" fill="#fff7ed" stroke="#fdba74" stroke-width="2"/>
  <text x="492" y="307" fill="#9a3412" font-family="Arial, 'Malgun Gothic', sans-serif" font-size="16" font-weight="700">점검 위치</text>
  <text x="492" y="331" fill="#0f172a" font-family="Arial, 'Malgun Gothic', sans-serif" font-size="20" font-weight="700">기준 샘플 판정부</text>
  <text x="72" y="348" fill="#334155" font-family="Arial, 'Malgun Gothic', sans-serif" font-size="15">작업자는 주황색 표시 위치를 확인한 뒤 점검 결과를 입력합니다.</text>
</svg>
