<svg xmlns="http://www.w3.org/2000/svg" width="720" height="420" viewBox="0 0 720 420" role="img" aria-label="CM-BL-V01 V블레이드 세트 (절단용)">
  <rect width="720" height="420" fill="#f8fafc"/>
  <rect x="32" y="30" width="656" height="360" rx="20" fill="#ffffff" stroke="#cbd5e1" stroke-width="2"/>
  <rect x="64" y="62" width="158" height="42" rx="21" fill="#dcfce7" stroke="#16a34a" stroke-width="2"/>
  <text x="92" y="90" fill="#166534" font-family="Arial, 'Malgun Gothic', sans-serif" font-size="20" font-weight="700">TOOL</text>
  <text x="246" y="90" fill="#0f172a" font-family="Arial, 'Malgun Gothic', sans-serif" font-size="26" font-weight="700">공구/소모품</text>
  
  <path d="M200 278l88-124 54 38-88 124c-13 19-39 23-58 10s-23-39-10-58z" fill="#86efac" stroke="#16a34a" stroke-width="5"/>
  <rect x="338" y="130" width="158" height="58" rx="18" fill="#bbf7d0" stroke="#16a34a" stroke-width="5"/>
  <path d="M484 188l44 84" stroke="#166534" stroke-width="18" stroke-linecap="round"/>
  <path d="M338 188l-44 84" stroke="#166534" stroke-width="18" stroke-linecap="round"/>
  <circle cx="417" cy="159" r="18" fill="#f0fdf4" stroke="#166534" stroke-width="5"/>
  <rect x="70" y="306" width="580" height="54" rx="14" fill="#f8fafc" stroke="#cbd5e1" stroke-width="2"/>
  <text x="94" y="329" fill="#475569" font-family="Arial, 'Malgun Gothic', sans-serif" font-size="15">CM-BL-V01</text>
  <text x="94" y="352" fill="#0f172a" font-family="Arial, 'Malgun Gothic', sans-serif" font-size="22" font-weight="700">V블레이드 세트 (절단용)</text>
  <text x="472" y="352" fill="#64748b" font-family="Arial, 'Malgun Gothic', sans-serif" font-size="16">공구실-B1</text>
</svg>
